<?xml version="1.0" encoding="utf-8"?>
<!-- Generator: Adobe Illustrator 28.1.0, SVG Export Plug-In . SVG Version: 6.00 Build 0)  -->
<svg version="1.1" id="Ebene_1" xmlns="http://www.w3.org/2000/svg" xmlns:xlink="http://www.w3.org/1999/xlink" x="0px" y="0px"
	 viewBox="0 0 24 24" style="enable-background:new 0 0 24 24;" xml:space="preserve">
<style type="text/css">
	.st0{display:none;}
	.st1{display:inline;}
</style>
<g>
	<path d="M16.5,5c2,0,3.5,1.5,3.5,3.5c0,2.9-3.1,5.7-7.9,10.1L12,18.6l-0.1-0.1C7.1,14.2,4,11.4,4,8.5C4,6.5,5.5,5,7.5,5
		c1.1,0,2.3,0.5,3,1.4L12,8.2l1.5-1.8C14.2,5.5,15.4,5,16.5,5 M16.5,3c-1.7,0-3.4,0.8-4.5,2.1C10.9,3.8,9.2,3,7.5,3
		C4.4,3,2,5.4,2,8.5c0,3.8,3.4,6.9,8.6,11.5l1.4,1.3l1.4-1.3c5.2-4.7,8.6-7.8,8.6-11.5C22,5.4,19.6,3,16.5,3L16.5,3z"/>
</g>
<g class="st0">
	
		<image style="display:inline;overflow:visible;opacity:0.61;" width="38" height="37" xlink:href="D61437C62F9641B1.png"  transform="matrix(1 0 0 1 -5 -6)">
	</image>
	<g class="st1">
		<path d="M11.6,18.9c-4.9-4.4-8.1-7.3-8.1-10.4c0-2.2,1.8-4,4-4c1.3,0,2.5,0.6,3.4,1.6L12,7.4l1.1-1.3c0.8-1,2.1-1.6,3.4-1.6
			c2.2,0,4,1.8,4,4c0,3.1-3.2,6-8.1,10.4L12,19.3L11.6,18.9z"/>
		<path d="M16.5,6C17.9,6,19,7.1,19,8.5c0,2.3-2.9,5.1-7,8.8c-4.1-3.7-7-6.5-7-8.8C5,7.1,6.1,6,7.5,6c0.8,0,1.7,0.4,2.2,1L12,9.7
			L14.3,7C14.8,6.4,15.7,6,16.5,6 M16.5,3c-1.7,0-3.4,0.8-4.5,2.1C10.9,3.8,9.2,3,7.5,3C4.4,3,2,5.4,2,8.5c0,3.8,3.4,6.9,8.6,11.5
			l1.4,1.3l1.4-1.3c5.2-4.7,8.6-7.8,8.6-11.5C22,5.4,19.6,3,16.5,3L16.5,3z"/>
	</g>
</g>
</svg>
