<?xml version="1.0" encoding="UTF-8"?>
<svg id="Ebene_1" data-name="Ebene 1" xmlns="http://www.w3.org/2000/svg" xmlns:xlink="http://www.w3.org/1999/xlink" viewBox="0 0 26 25">
  <defs>
    <style>
      .cls-1 {
        filter: url(#drop-shadow-1);
        stroke-width: 0px;
      }
    </style>
    <filter id="drop-shadow-1" filterUnits="userSpaceOnUse">
      <feOffset dx="1" dy="-1"/>
      <feGaussianBlur result="blur" stdDeviation="1"/>
      <feFlood flood-color="#fff" flood-opacity="1"/>
      <feComposite in2="blur" operator="in"/>
      <feComposite in="SourceGraphic"/>
    </filter>
  </defs>
  <path class="cls-1" d="M16.5,6c2,0,3.5,1.5,3.5,3.5,0,2.9-3.1,5.7-7.9,10.1h-.1l-.1-.1c-4.8-4.3-7.9-7.1-7.9-10,0-2,1.5-3.5,3.5-3.5,1.1,0,2.3.5,3,1.4l1.5,1.8,1.5-1.8c.7-.9,1.9-1.4,3-1.4M16.5,4c-1.7,0-3.4.8-4.5,2.1-1.1-1.3-2.8-2.1-4.5-2.1-3.1,0-5.5,2.4-5.5,5.5,0,3.8,3.4,6.9,8.6,11.5l1.4,1.3,1.4-1.3c5.2-4.7,8.6-7.8,8.6-11.5,0-3.1-2.4-5.5-5.5-5.5h0Z"/>
</svg>